<svg xmlns="http://www.w3.org/2000/svg" width="21.908" height="24.205" viewBox="0 0 21.908 24.205">
  <g id="bell_1_" data-name="bell (1)" transform="translate(-24.16)">
    <path id="Path_7903" data-name="Path 7903" d="M43.559,15.833a.628.628,0,0,1-.628-.628V10.772a7.831,7.831,0,0,0-5.49-7.463,2.472,2.472,0,1,0-4.656,0A7.831,7.831,0,0,0,27.3,10.772v4.433a.628.628,0,0,1-.628.628,2.51,2.51,0,0,0,0,5.019h5.855a2.676,2.676,0,1,0,5.18,0h5.855a2.51,2.51,0,0,0,0-5.019ZM34.067,2.473a1.047,1.047,0,1,1,1.948.534,7.8,7.8,0,0,0-1.8,0A1.04,1.04,0,0,1,34.067,2.473Zm2.3,19.056a1.25,1.25,0,1,1-2.3-.676h2.1A1.242,1.242,0,0,1,36.365,21.529Zm7.194-2.1H26.67a1.084,1.084,0,1,1,0-2.168,2.056,2.056,0,0,0,2.053-2.053V10.772a6.391,6.391,0,1,1,12.783,0v4.433a2.056,2.056,0,0,0,2.053,2.053,1.084,1.084,0,1,1,0,2.168Z" transform="translate(0 0)" fill="#333"/>
  </g>
</svg>
