<svg xmlns="http://www.w3.org/2000/svg" width="800.944" height="762.344" viewBox="0 0 800.944 762.344">
  <g id="help_and_support" data-name="help and support" transform="translate(2315.682 -1954.792)">
    <path id="Path_10114" data-name="Path 10114" d="M-1786.993,2259.547c-132.1,0-239.181,98.632-239.181,220.295s107.083,220.306,239.181,220.306c22.3,0,35.171-.289,50.616-2.539a42.749,42.749,0,0,1,44.075,22.665l16,30.856,20.187-40.934a230.929,230.929,0,0,1,46.814-64.235c36.741-35.39,52.666-62.365,63.442-126.12,2.527-14.956,2.192-29.323,2.192-39.462C-1543.668,2358.706-1654.895,2259.547-1786.993,2259.547Zm-84.768,224.353a32.7,32.7,0,0,1-30.392,30.392,32.578,32.578,0,0,1-34.623-34.623,32.7,32.7,0,0,1,30.392-30.393A32.589,32.589,0,0,1-1871.761,2483.9Zm119.348,0a32.7,32.7,0,0,1-30.392,30.392,32.578,32.578,0,0,1-34.623-34.623,32.7,32.7,0,0,1,30.392-30.393A32.589,32.589,0,0,1-1752.413,2483.9Zm119.348,0a32.7,32.7,0,0,1-30.392,30.392,32.578,32.578,0,0,1-34.622-34.623,32.7,32.7,0,0,1,30.392-30.393A32.589,32.589,0,0,1-1633.065,2483.9Z" transform="translate(-129.839 -136.859)" fill="none" stroke="#1f2124" stroke-width="15"/>
    <path id="Path_10115" data-name="Path 10115" d="M-2308.182,2589.146a90.971,90.971,0,0,0,50.424,81.456V2507.69A90.971,90.971,0,0,0-2308.182,2589.146Z" transform="translate(0 -251.106)" fill="none" stroke="#1f2124" stroke-width="15"/>
    <path id="Path_10116" data-name="Path 10116" d="M-945.072,2507.69V2670.6a90.971,90.971,0,0,0,50.423-81.456A90.971,90.971,0,0,0-945.072,2507.69Z" transform="translate(-627.588 -251.106)" fill="none" stroke="#1f2124" stroke-width="15"/>
    <path id="Path_10117" data-name="Path 10117" d="M-1529.636,2244.866a35.1,35.1,0,0,0-26.339-33.979q-7.59-19.047-16.959-37.126a398.62,398.62,0,0,0-27.055-44.682,32.867,32.867,0,0,0-4.649-34.617c-2.8-3.394-5.679-6.78-8.573-10.065-69.348-78.74-161.9-122.1-260.6-122.1s-191.241,43.364-260.582,122.1c-2.892,3.283-5.777,6.668-8.572,10.059a32.865,32.865,0,0,0-4.655,34.62,398.365,398.365,0,0,0-27.067,44.69,409.742,409.742,0,0,0-17.42,38.308,35.089,35.089,0,0,0-22.622,32.792v186.347a35.088,35.088,0,0,0,29.525,34.635,312.271,312.271,0,0,0,73.3,119.548,312.322,312.322,0,0,0,173.7,89.5,39.461,39.461,0,0,0,39.171,34.743,39.462,39.462,0,0,0,39.462-39.462,39.462,39.462,0,0,0-39.462-39.461,39.461,39.461,0,0,0-35.652,22.534c-106.071-16.932-193.535-92.116-228.473-191.075a35.072,35.072,0,0,0,18.586-30.959V2244.866a34.966,34.966,0,0,0-10.271-24.806,35.216,35.216,0,0,0-5.741-4.635,376.617,376.617,0,0,1,36.61-67.275,33.988,33.988,0,0,0,6.768.68,33.25,33.25,0,0,0,25.736-12.183c35.665-43.3,80.654-75.385,130.1-92.783a262.552,262.552,0,0,1,87.559-15.012c81.734,0,161.069,39.329,217.662,107.9a33.14,33.14,0,0,0,25.645,12.077h.112a34,34,0,0,0,6.759-.679,377,377,0,0,1,37.333,69.076,35.142,35.142,0,0,0-3.215,2.833,34.966,34.966,0,0,0-10.271,24.806v186.347a35.081,35.081,0,0,0,35.077,35.077,35.082,35.082,0,0,0,35.077-35.077V2244.866Z" transform="translate(-43.024)" fill="none" stroke="#1f2124" stroke-width="15"/>
  </g>
</svg>
