<svg xmlns="http://www.w3.org/2000/svg" width="23.612" height="23.506" viewBox="0 0 23.612 23.506">
  <path id="homepage" d="M27.112,12.62V24.85a2.459,2.459,0,0,1-2.457,2.457H20.561a1.638,1.638,0,0,1-1.638-1.638v-4.5a.819.819,0,0,0-.819-.819H14.009a.819.819,0,0,0-.819.819v4.5a1.638,1.638,0,0,1-1.638,1.638H7.457A2.459,2.459,0,0,1,5,24.85V12.62a1.646,1.646,0,0,1,.8-1.405l9.418-5.651a1.638,1.638,0,0,1,1.686,0l9.418,5.651A1.646,1.646,0,0,1,27.112,12.62Z" transform="translate(-4.25 -4.551)" fill="none" stroke="#000" stroke-width="1.5"/>
</svg>
