<svg xmlns="http://www.w3.org/2000/svg" width="22.56" height="17.753" viewBox="0 0 22.56 17.753">
  <path id="Icon_awesome-comments" data-name="Icon awesome-comments" d="M15.557,8.233c0-3.306-3.482-5.983-7.778-5.983S0,4.928,0,8.233a5.073,5.073,0,0,0,1.421,3.44A8.417,8.417,0,0,1,.082,13.712a.3.3,0,0,0-.056.325.293.293,0,0,0,.273.18,6.584,6.584,0,0,0,3.317-.935,9.515,9.515,0,0,0,4.162.935C12.075,14.217,15.557,11.539,15.557,8.233Zm4.562,8.227a5.066,5.066,0,0,0,1.421-3.44c0-2.5-2-4.645-4.835-5.538a5.557,5.557,0,0,1,.049.752c0,3.96-4.028,7.18-8.975,7.18a11.212,11.212,0,0,1-1.185-.071C7.771,17.493,10.538,19,13.762,19a9.463,9.463,0,0,0,4.162-.935A6.584,6.584,0,0,0,21.241,19a.3.3,0,0,0,.273-.18.3.3,0,0,0-.056-.325A8.328,8.328,0,0,1,20.119,16.46Z" transform="translate(0.51 -1.75)" fill="none" stroke="#d8015f" stroke-width="1"/>
</svg>
