<svg xmlns="http://www.w3.org/2000/svg" width="22.886" height="18.007" viewBox="0 0 22.886 18.007">
  <path id="parent_wall_comments" d="M15.792,8.324c0-3.356-3.534-6.074-7.9-6.074S0,4.968,0,8.324a5.15,5.15,0,0,0,1.443,3.492A8.544,8.544,0,0,1,.084,13.885a.3.3,0,0,0-.057.33A.3.3,0,0,0,.3,14.4a6.684,6.684,0,0,0,3.367-.949A9.659,9.659,0,0,0,7.9,14.4C12.258,14.4,15.792,11.68,15.792,8.324Zm4.631,8.351a5.143,5.143,0,0,0,1.443-3.492c0-2.54-2.031-4.715-4.908-5.622a5.641,5.641,0,0,1,.049.763c0,4.02-4.088,7.289-9.111,7.289a11.382,11.382,0,0,1-1.2-.072c1.2,2.183,4,3.716,7.277,3.716a9.606,9.606,0,0,0,4.225-.949,6.684,6.684,0,0,0,3.367.949.3.3,0,0,0,.277-.182.3.3,0,0,0-.057-.33A8.454,8.454,0,0,1,20.423,16.675Z" transform="translate(0.51 -1.75)" fill="#d8015f" stroke="#fff" stroke-width="1"/>
</svg>
