<svg xmlns="http://www.w3.org/2000/svg" width="408.237" height="558.833" viewBox="0 0 408.237 558.833">
  <g id="parents_Walls" data-name="parents Walls" transform="translate(-5980.491 2346.188)">
    <g id="Ellipse_1261" data-name="Ellipse 1261" transform="translate(6062.705 -2346.188)" fill="none" stroke="#333" stroke-width="17">
      <circle cx="124" cy="124" r="124" stroke="none"/>
      <circle cx="124" cy="124" r="115.5" fill="none"/>
    </g>
    <path id="Icon_metro-file-image" data-name="Icon metro-file-image" d="M303.111,413.608v54.83H127.654v-32.9l32.9-32.9,21.932,21.932,65.8-65.8Zm-142.559-32.9a32.9,32.9,0,1,1,23.3-56.2,32.9,32.9,0,0,1-23.3,56.2Z" transform="translate(5881.499 -2278.708)" fill="none" stroke="#000" stroke-width="18"/>
    <path id="Subtraction_2" data-name="Subtraction 2" d="M365.847,591.646H268.288v-243.9H121.949v48.78H0v-73.17a24.39,24.39,0,0,1,24.39-24.389h94.389a157.144,157.144,0,0,0,165.432,0h81.637a24.39,24.39,0,0,1,24.39,24.389v243.9a24.39,24.39,0,0,1-24.39,24.39ZM317.83,506.282a6.867,6.867,0,0,0-6.859,6.86v22.865a6.867,6.867,0,0,0,6.859,6.86H340.7a6.867,6.867,0,0,0,6.859-6.86V513.141a6.867,6.867,0,0,0-6.859-6.86Zm0-79.267a6.867,6.867,0,0,0-6.859,6.859V456.74a6.867,6.867,0,0,0,6.859,6.859H340.7a6.867,6.867,0,0,0,6.859-6.859c0-12.262-.657-20.393-2.009-24.858-1.3-4.278-3.1-4.867-4.85-4.867Zm0-79.268a6.867,6.867,0,0,0-6.859,6.86v22.865a6.867,6.867,0,0,0,6.859,6.86H340.7a6.867,6.867,0,0,0,6.859-6.86c0-12.262-.657-20.393-2.009-24.858-1.3-4.278-3.1-4.868-4.85-4.868Zm-268.287,0a6.868,6.868,0,0,0-6.86,6.86v22.865a6.868,6.868,0,0,0,6.86,6.86H72.408a6.868,6.868,0,0,0,6.86-6.86V354.607a6.868,6.868,0,0,0-6.86-6.86Z" transform="translate(5989.491 -2388)" fill="none" stroke="#000" stroke-width="18"/>
  </g>
</svg>
