<svg xmlns="http://www.w3.org/2000/svg" width="746.31" height="640.865" viewBox="0 0 746.31 640.865">
  <g id="Product_and_Services_" data-name="Product and Services " transform="translate(-6458.31 2431.741)">
    <g id="Group_17389" data-name="Group 17389" transform="translate(5869.116 -2407.954)">
      <path id="Path_10103" data-name="Path 10103" d="M655.451,218.279h85.956L722.7,112.731H620.07q9.21,27.185,18.421,54.379Zm85.666-105.548,18.71,105.548H869.468V112.731Zm146.764,0V218.279H997.233l18.421-105.548Zm146.484,0-18.71,105.548h85.955l17.249-51.169c6.141-18.124,11.983-36.256,18.124-54.379ZM1095.47,236.7h-83.034l-3.219,19.584-15.2,85.955h66.074q5.261-15.784,10.531-31.576c7.3-21.631,14.616-43.271,21.631-64.9ZM975.305,342.239l15.788-89.174,2.921-16.366H887.88v105.54Zm-105.837,0V236.7H763.334l2.632,16.366,15.788,89.174Zm-106.134,0-15.2-85.955L744.625,236.7H661.88l2.93,9.062c7.3,21.631,14.616,43.271,21.631,64.9,3.8,10.531,7.313,21.054,10.82,31.576ZM574.175,79.694h609.008c-11.992,35.084-22.812,67.832-33.045,97.939-9.35,28.069-18.124,54.388-26.311,78.652-7.89,23.1-14.914,44.731-21.928,64.91-6.429,19-12.281,37.13-18.124,54.082H673.285c-5.554-16.952-11.694-35.084-18.123-54.082-6.727-20.179-14.039-41.81-21.64-64.91-8.187-24.264-16.96-50.583-26.608-78.652-9.937-30.107-21.045-62.855-32.74-97.939Z" transform="translate(141.876 111.178)" fill="none" stroke="#333" stroke-width="15"/>
      <path id="Path_10104" data-name="Path 10104" d="M641.868,114.5v64.089c0,10.467-11.406,18.965-25.444,18.965h-.29c-14.03,0-25.436-8.5-25.436-18.965V114.5Z" transform="translate(265.686 371.956)" fill="none" stroke="#333" stroke-width="15" fill-rule="evenodd"/>
      <path id="Path_10106" data-name="Path 10106" d="M607.105,127.029a15.355,15.355,0,0,1,15.5,15.2,15.351,15.351,0,1,1-30.7,0,15.284,15.284,0,0,1,15.2-15.2Z" transform="translate(274.715 451.848)" fill="none" stroke="#333" stroke-width="15" fill-rule="evenodd"/>
      <path id="Path_10107" data-name="Path 10107" d="M672.154,114.5v64.089c0,10.467-11.694,18.965-25.725,18.965h0c-14.039,0-25.436-8.5-25.436-18.965V114.5Z" transform="translate(492.679 371.956)" fill="none" stroke="#333" stroke-width="15" fill-rule="evenodd"/>
      <path id="Path_10109" data-name="Path 10109" d="M637.4,127.029a15.347,15.347,0,0,1,15.491,15.2,15.6,15.6,0,0,1-15.491,15.5,15.344,15.344,0,0,1-15.2-15.5,15.1,15.1,0,0,1,15.2-15.2Z" transform="translate(501.708 451.848)" fill="none" stroke="#333" stroke-width="15" fill-rule="evenodd"/>
      <rect id="Rectangle_3649" data-name="Rectangle 3649" width="206.12" height="20.174" transform="translate(907.55 519.494)" fill="none" stroke="#333" stroke-width="15"/>
      <path id="Path_10110" data-name="Path 10110" d="M721.225,292.649l-67.245-191.5-93.851-.293.293-33.038,116.363.292.585-.292,75.139,214.015Z" transform="translate(36.632 22.185)" fill="none" stroke="#333" stroke-width="15" fill-rule="evenodd"/>
    </g>
    <g id="Group_17390" data-name="Group 17390" transform="translate(6042.408 -1066.71) rotate(-90)">
      <path id="Path_10112" data-name="Path 10112" d="M1355.609,876.931l1.682-51.461-31.2-1.022a156.817,156.817,0,0,0-8.759-30.829l28.611-15.68-24.769-45.15-30.421,16.682a159.862,159.862,0,0,0-21.733-21.1l18.17-30.714-44.313-26.236L1224.127,703.1a158.984,158.984,0,0,0-28.382-7.392v-37.17H1170.3v373.108h25.448v-23.05a156.562,156.562,0,0,0,28.1-7.3l10.972,20.61,45.456-24.146-11.485-21.64a160.707,160.707,0,0,0,23.235-22.757l21.469,13.691,27.673-43.433-23.129-14.733a156.6,156.6,0,0,0,8.724-32.912Z" transform="translate(0 0)" fill="none" stroke="#333" stroke-miterlimit="10" stroke-width="15"/>
      <path id="Path_10113" data-name="Path 10113" d="M1170.3,698.926v35.5a77.06,77.06,0,0,1,0,154.118v35.488a112.551,112.551,0,0,0,0-225.1Z" transform="translate(0 33.606)" fill="none" stroke="#333" stroke-miterlimit="10" stroke-width="15"/>
    </g>
  </g>
</svg>
