<svg xmlns="http://www.w3.org/2000/svg" width="739.104" height="739.104" viewBox="0 0 739.104 739.104">
  <path id="Icon_awesome-user-alt" data-name="Icon awesome-user-alt" d="M357.552,402.246c111.037,0,201.123-90.086,201.123-201.123S468.589,0,357.552,0,156.429,90.086,156.429,201.123,246.515,402.246,357.552,402.246ZM536.328,446.94H459.371a243.129,243.129,0,0,1-203.637,0H178.776A178.763,178.763,0,0,0,0,625.716v22.347A67.058,67.058,0,0,0,67.041,715.1H648.063A67.058,67.058,0,0,0,715.1,648.063V625.716A178.762,178.762,0,0,0,536.328,446.94Z" transform="translate(12 12)" fill="none" stroke="#2e2e2e" stroke-width="24"/>
</svg>
