<svg xmlns="http://www.w3.org/2000/svg" width="538.75" height="524.804" viewBox="0 0 538.75 524.804">
  <g id="Group44" transform="translate(-2300 -2788)">
    <path id="Subtraction_1" data-name="Subtraction 1" d="M379.695,500.8H46.3a45.43,45.43,0,0,1-18.017-3.691,46.114,46.114,0,0,1-7.864-4.33A47.1,47.1,0,0,1,0,453.854V438.2a127.875,127.875,0,0,1,2.508-25.234A125.252,125.252,0,0,1,54.43,334.383,122.929,122.929,0,0,1,75.4,322.84,121.619,121.619,0,0,1,123.462,313h53.147a165.674,165.674,0,0,0,106.848,11.567A168.05,168.05,0,0,0,317.241,313h53.147a120.332,120.332,0,0,1,26.678,2.967,115.727,115.727,0,0,1,24.663,8.639c-.369,0-.77-.008-1.194-.008-50.554,0-91.683,41.708-91.683,92.974A93.22,93.22,0,0,0,379.692,500.8ZM246.925,281.7A136.986,136.986,0,0,1,169.28,257.64a141.121,141.121,0,0,1-58.427-88.41,144.047,144.047,0,0,1,0-56.756,140.994,140.994,0,0,1,58.427-88.41,138.35,138.35,0,0,1,23.593-12.99,137.229,137.229,0,0,1,108.105,0,138.346,138.346,0,0,1,23.593,12.99A141.12,141.12,0,0,1,383,112.473a144.044,144.044,0,0,1,0,56.756,140.994,140.994,0,0,1-58.427,88.41,138.345,138.345,0,0,1-23.593,12.99A136.727,136.727,0,0,1,246.925,281.7Z" transform="translate(2312 2800)" fill="none" stroke="#333" stroke-width="24"/>
    <path id="refer" d="M421.38,343.5A31.444,31.444,0,0,1,412.03,366l-23.661,23.53a12.721,12.721,0,1,1-17.942-18.039l15.859-15.773H314.2a25.754,25.754,0,0,0-.311,51.507,12.721,12.721,0,0,1,0,25.443,50.39,50.39,0,0,1-36.1-15.045A51.308,51.308,0,0,1,314.2,330.271h70.924l-14.667-14.5a12.722,12.722,0,0,1,17.892-18.091l23.624,23.361A31.447,31.447,0,0,1,421.38,343.5Zm0,0" transform="translate(2417.37 2840.156)" fill="#333"/>
  </g>
</svg>
