<svg xmlns="http://www.w3.org/2000/svg" width="748.344" height="724.074" viewBox="0 0 748.344 724.074">
  <g id="Group44" transform="translate(-2300 -2788)">
    <path id="Subtraction_1" data-name="Subtraction 1" d="M530.776,700.074H64.721a63.507,63.507,0,0,1-25.187-5.16,64.457,64.457,0,0,1-10.994-6.053A65.847,65.847,0,0,1,0,634.442V612.565a178.757,178.757,0,0,1,3.506-35.275A175.09,175.09,0,0,1,76.088,467.434,171.841,171.841,0,0,1,105.4,451.3a170.011,170.011,0,0,1,67.183-13.752h74.294a231.6,231.6,0,0,0,149.364,16.169,234.919,234.919,0,0,0,47.226-16.169h74.294a168.212,168.212,0,0,1,37.294,4.148,161.774,161.774,0,0,1,34.476,12.076c-.515-.007-1.076-.011-1.669-.011-70.669,0-128.163,58.3-128.163,129.968a130.312,130.312,0,0,0,71.068,116.345l0,0h0Zm-185.6-306.282a191.493,191.493,0,0,1-108.54-33.637,197.274,197.274,0,0,1-81.675-123.589,201.363,201.363,0,0,1,0-79.34A197.1,197.1,0,0,1,236.636,33.637a193.4,193.4,0,0,1,32.98-18.159,191.833,191.833,0,0,1,151.12,0,193.394,193.394,0,0,1,32.981,18.159,197.272,197.272,0,0,1,81.675,123.589,201.36,201.36,0,0,1,0,79.34,197.1,197.1,0,0,1-81.675,123.589,193.393,193.393,0,0,1-32.981,18.159,191.131,191.131,0,0,1-75.56,15.479Z" transform="translate(2312 2800)" fill="none" stroke="#333" stroke-width="24"/>
    <path id="refer" d="M484.4,363.2a43.956,43.956,0,0,1-13.07,31.44l-33.076,32.892a17.783,17.783,0,1,1-25.081-25.216l22.17-22.048H334.566a36.04,36.04,0,0,0-36,36c0,19.85,15.953,36,35.566,36a17.783,17.783,0,1,1,0,35.566,70.44,70.44,0,0,1-50.46-21.031,71.724,71.724,0,0,1,50.894-122.1h99.145l-20.5-20.274a17.784,17.784,0,1,1,25.011-25.289L471.243,331.8A43.96,43.96,0,0,1,484.4,363.2Zm0,0" transform="translate(2563.944 2973.118)" fill="#333"/>
  </g>
</svg>
