<svg xmlns="http://www.w3.org/2000/svg" width="620.263" height="798.959" viewBox="0 0 620.263 798.959">
  <g id="Group_17295" data-name="Group 17295" transform="translate(372.45 -128.338)">
    <path id="Path_10035" data-name="Path 10035" d="M-75.02,138.348h0c-30.346-3.012-71.952,8.567-71.952,8.567q-4.47,1.534-8.881,3.186M182.623,578.144m-3.706,15.866M-149.952,147.938c-92.475,22.468-149.31,115-149.31,115-19.565,23.322-30.5,49.611-36.6,74.429-7.537,30.655-13.092,90.418.952,119.228,5.862,12.018,13.622,19.724,19.638,39.764a82.964,82.964,0,0,1-12.491-1.03c-6.558-1.118-11.463-2.852-14.742-8.41-1.067,4.27,4.729,8.353,8.986,11.1a33.969,33.969,0,0,1-11.947-8.282c2.941,7.5,11.047,12.43,20.587,13.923a41.1,41.1,0,0,0,8.766,4.015c-.341,1.319-.709,2.59-1.16,3.831-7.907,21.833-30.976,24.278-41.253,39.754-5.528,8.327-5.158,19.354,12.727,33.208a84.286,84.286,0,0,0,12.6,8.054,7.938,7.938,0,0,1,4.165,5.751,7.943,7.943,0,0,1-2.107,6.786c-5.619,5.854-10.622,10.338-10.622,14.686,0,9.783,11.255,22.022,25.35,23.155,2.386.189,16.893-1.285,5.177,11.064-4.522,4.773-7.735,6-7.7,15.466.044,12.763,10.659,16.967,19.763,16.768a6.007,6.007,0,0,1,5.06,2.573,6,6,0,0,1,.66,5.641,40.251,40.251,0,0,0-2.816,14.838c0,22.127,14.33,37.579,36.2,37.579,7.723,0,14.559-2.9,21.021-6.112,10.507-5.217,29.3,8.552,74.836,8.552a188.392,188.392,0,0,0,34.746-3.176c34.92,75.744-8.066,135.619-63.007,153.748,140.161,10.49,256.6-172.047,391.7-35.258-55.949-93.52-96.083-84.011-118.385-147.98,0,0,64.908-37.046,120.457-152.957,14.2-29.635,32.063-71.116,29.6-144.137C221.124,130.23-58.259,138.078-58.259,138.078c-5.842.012-11.414.11-16.761.27.608-.115,1.221-.25,1.83-.361m-192.164,78.856,18.485-32.887M91.563,716.706l.424.159a.865.865,0,0,1,.042.1C91.875,716.878,91.717,716.794,91.563,716.706Z" transform="translate(0 0)" fill="none" stroke="#1c1c1c" stroke-miterlimit="10" stroke-width="19" style="mix-blend-mode: multiply;isolation: isolate"/>
    <g id="Group_17294" data-name="Group 17294" transform="translate(-248.24 187.16)">
      <path id="Path_10036" data-name="Path 10036" d="M74.343,384H59.777a127.3,127.3,0,0,0-4.508-16.759L67.89,359.96a13.448,13.448,0,0,0,4.935-18.36l-11-19.039a13.437,13.437,0,0,0-18.365-4.922l-12.656,7.3a128.947,128.947,0,0,0-12.251-12.256l7.3-12.648a13.441,13.441,0,0,0-4.918-18.36L1.9,270.683a13.247,13.247,0,0,0-10.2-1.344,13.307,13.307,0,0,0-8.153,6.259l-6.193,10.72c-.257-.015-.5-.074-.758-.074H-37.982a125.98,125.98,0,0,0-4.513-16.751l12.633-7.284a13.386,13.386,0,0,0,6.266-8.162,13.332,13.332,0,0,0-1.344-10.205l-10.983-19.03a13.346,13.346,0,0,0-8.162-6.276,13.28,13.28,0,0,0-10.208,1.344l-12.655,7.311A127.285,127.285,0,0,0-79.2,214.935l7.3-12.65a13.355,13.355,0,0,0,1.344-10.213,13.326,13.326,0,0,0-6.259-8.148l-19.052-11.007a13.474,13.474,0,0,0-18.358,4.922l-7.294,12.633a128.146,128.146,0,0,0-16.751-4.513V171.4A13.458,13.458,0,0,0-151.7,157.954h-21.993A13.464,13.464,0,0,0-187.134,171.4V185.96a128.078,128.078,0,0,0-16.746,4.513l-7.3-12.633a13.459,13.459,0,0,0-18.355-4.922l-19.044,10.993a13.356,13.356,0,0,0-6.266,8.169,13.368,13.368,0,0,0,1.341,10.205l7.309,12.65a128.152,128.152,0,0,0-12.253,12.256l-12.648-7.311a13.343,13.343,0,0,0-10.21-1.344,13.3,13.3,0,0,0-8.152,6.259l-11,19.047a13.358,13.358,0,0,0-1.341,10.2,13.352,13.352,0,0,0,6.259,8.162l12.636,7.292a126.016,126.016,0,0,0-4.508,16.751h-14.573A13.451,13.451,0,0,0-315.42,299.69v21.985a13.445,13.445,0,0,0,13.435,13.438h14.573a125.416,125.416,0,0,0,4.508,16.759l-12.633,7.292a13.347,13.347,0,0,0-6.261,8.162,13.358,13.358,0,0,0,1.341,10.2l11,19.032a13.308,13.308,0,0,0,8.157,6.266,13.275,13.275,0,0,0,10.2-1.329l12.66-7.316a128.437,128.437,0,0,0,12.256,12.256L-253.5,419.08a13.345,13.345,0,0,0-1.341,10.205,13.29,13.29,0,0,0,6.261,8.155l19.049,11.007a13.455,13.455,0,0,0,18.355-4.92l7.3-12.633a128.087,128.087,0,0,0,16.746,4.51v14.561c0,.255.061.5.078.755l-10.735,6.193a13.465,13.465,0,0,0-4.913,18.36l11,19.064a13.479,13.479,0,0,0,18.358,4.905l12.658-7.309a128.93,128.93,0,0,0,12.251,12.248l-7.3,12.665a13.46,13.46,0,0,0,4.913,18.358l19.045,10.993a13.39,13.39,0,0,0,10.2,1.346,13.314,13.314,0,0,0,8.162-6.269l7.294-12.631a128.6,128.6,0,0,0,16.754,4.51v14.568a13.454,13.454,0,0,0,13.433,13.438h21.995A13.457,13.457,0,0,0-40.5,547.724V533.156a128.937,128.937,0,0,0,16.749-4.51l7.289,12.631a13.382,13.382,0,0,0,8.16,6.269A13.389,13.389,0,0,0,1.9,546.2l19.044-10.993a13.444,13.444,0,0,0,4.918-18.358L18.551,504.19a129.527,129.527,0,0,0,12.256-12.248l12.663,7.309a13.483,13.483,0,0,0,18.35-4.93l11.012-19.047a13.483,13.483,0,0,0-4.935-18.36l-12.629-7.292a127,127,0,0,0,4.508-16.751H74.343a13.458,13.458,0,0,0,13.445-13.438V397.441A13.452,13.452,0,0,0,74.343,384Zm-278.728,33.691a6.181,6.181,0,0,0-2.22-.417,6.092,6.092,0,0,0-5.29,3.058l-9.857,17.073a1.22,1.22,0,0,1-1.673.459l-19.052-11.01a1.192,1.192,0,0,1-.567-.731,1.22,1.22,0,0,1,.122-.927l9.874-17.095a6.112,6.112,0,0,0-1.467-7.826,115.331,115.331,0,0,1-17.779-17.784,6.094,6.094,0,0,0-7.819-1.462l-17.1,9.879a1.382,1.382,0,0,1-1.668-.461l-11-19.032a1.372,1.372,0,0,1,.444-1.673l17.087-9.867a6.107,6.107,0,0,0,2.636-7.507,113.787,113.787,0,0,1-6.522-24.281,6.1,6.1,0,0,0-6.041-5.185h-19.714a1.233,1.233,0,0,1-1.221-1.231V299.69a1.233,1.233,0,0,1,1.221-1.231h19.714a6.1,6.1,0,0,0,6.041-5.182,113.987,113.987,0,0,1,6.522-24.283,6.11,6.11,0,0,0-2.636-7.515l-17.092-9.859a1.379,1.379,0,0,1-.439-1.673l11-19.049a1.15,1.15,0,0,1,.736-.557,1.127,1.127,0,0,1,.927.123l17.1,9.869a6.092,6.092,0,0,0,7.819-1.462,114.993,114.993,0,0,1,17.776-17.784,6.085,6.085,0,0,0,1.469-7.809l-9.874-17.112a1.367,1.367,0,0,1,.449-1.665l19.042-11a1.229,1.229,0,0,1,1.675.451l9.859,17.08a6.139,6.139,0,0,0,7.51,2.641,113.813,113.813,0,0,1,24.283-6.529,6.1,6.1,0,0,0,5.187-6.038V171.4a1.219,1.219,0,0,1,1.224-1.221H-151.7a1.214,1.214,0,0,1,1.216,1.221v19.7a6.106,6.106,0,0,0,5.192,6.038,114.011,114.011,0,0,1,24.283,6.529,6.124,6.124,0,0,0,7.51-2.641l9.857-17.08a1.227,1.227,0,0,1,1.673-.451l19.057,11.01a1.191,1.191,0,0,1,.567.731,1.2,1.2,0,0,1-.128.927l-9.872,17.112a6.1,6.1,0,0,0,1.464,7.809A115.8,115.8,0,0,1-73.1,238.863a6.1,6.1,0,0,0,7.821,1.469l17.1-9.869a1.123,1.123,0,0,1,.93-.123,1.151,1.151,0,0,1,.743.564l10.992,19.042a1.233,1.233,0,0,1,.128.934,1.216,1.216,0,0,1-.574.738l-17.085,9.859a6.129,6.129,0,0,0-2.642,7.515,114.544,114.544,0,0,1,6.531,24.283,6.093,6.093,0,0,0,6.036,5.182h19.714a1.233,1.233,0,0,1,1.221,1.231v21.985a1.233,1.233,0,0,1-1.221,1.231H-43.122a6.093,6.093,0,0,0-6.036,5.185,114.013,114.013,0,0,1-6.531,24.281,6.125,6.125,0,0,0,2.642,7.507l17.092,9.867a1.209,1.209,0,0,1,.567.738,1.232,1.232,0,0,1-.128.934l-11,19.049a1.24,1.24,0,0,1-1.665.444l-17.1-9.879A6.072,6.072,0,0,0-73.1,382.5a116.131,116.131,0,0,1-17.776,17.776,6.122,6.122,0,0,0-1.464,7.826l9.879,17.1a1.238,1.238,0,0,1,.12.917,1.262,1.262,0,0,1-.576.741l-19.047,11a1.227,1.227,0,0,1-1.673-.444l-9.857-17.087a6.125,6.125,0,0,0-7.51-2.642,113.867,113.867,0,0,1-24.283,6.529,6.106,6.106,0,0,0-5.192,6.038v19.7a1.216,1.216,0,0,1-1.216,1.224h-21.993a1.221,1.221,0,0,1-1.224-1.224v-19.7a6.1,6.1,0,0,0-5.187-6.038A113.67,113.67,0,0,1-204.386,417.694Zm279.955,1.739a1.23,1.23,0,0,1-1.226,1.222H54.636A6.1,6.1,0,0,0,48.6,425.84a113.421,113.421,0,0,1-6.531,24.283,6.122,6.122,0,0,0,2.644,7.515L61.79,467.5a1.236,1.236,0,0,1,.451,1.673l-11,19.049a1.231,1.231,0,0,1-1.67.441l-17.1-9.867a6.075,6.075,0,0,0-7.819,1.467A115.991,115.991,0,0,1,6.874,498.029a6.114,6.114,0,0,0-1.464,7.826l9.872,17.094a1.39,1.39,0,0,1-.446,1.675L-4.209,535.618a1.252,1.252,0,0,1-.929.13,1.231,1.231,0,0,1-.741-.574l-9.864-17.087a6.129,6.129,0,0,0-7.507-2.642,113.542,113.542,0,0,1-24.283,6.529,6.1,6.1,0,0,0-5.187,6.039v19.711a1.221,1.221,0,0,1-1.226,1.214H-75.943a1.217,1.217,0,0,1-1.217-1.214V528.013a6.1,6.1,0,0,0-5.185-6.039,113.071,113.071,0,0,1-24.286-6.529,6.155,6.155,0,0,0-7.512,2.642L-124,535.174a1.369,1.369,0,0,1-1.673.444l-19.037-10.992a1.229,1.229,0,0,1-.454-1.675l9.872-17.094a6.126,6.126,0,0,0-1.464-7.826,116.58,116.58,0,0,1-17.784-17.769,6.1,6.1,0,0,0-7.814-1.467l-17.1,9.867a1.23,1.23,0,0,1-1.677-.441l-11-19.049a1.23,1.23,0,0,1,.451-1.673l10.774-6.217a13.374,13.374,0,0,0,7.208,2.131H-151.7a13.458,13.458,0,0,0,13.435-13.445V435.4a128.364,128.364,0,0,0,16.751-4.51l7.3,12.648a13.466,13.466,0,0,0,18.353,4.905l19.045-10.993a13.315,13.315,0,0,0,6.266-8.17A13.276,13.276,0,0,0-71.894,419.1L-79.2,406.432a126.793,126.793,0,0,0,12.256-12.256l12.665,7.316a13.3,13.3,0,0,0,10.2,1.329,13.315,13.315,0,0,0,8.152-6.252l10.993-19.047a13.336,13.336,0,0,0,1.344-10.205,13.344,13.344,0,0,0-6.257-8.155l-12.643-7.292a125.482,125.482,0,0,0,4.513-16.759h14.573a13.449,13.449,0,0,0,13.44-13.438V299.69a13.329,13.329,0,0,0-2.131-7.2l6.23-10.794a1.185,1.185,0,0,1,.731-.559,1.175,1.175,0,0,1,.929.125l19.052,11A1.149,1.149,0,0,1,15.4,293a1.191,1.191,0,0,1-.123.927l-9.872,17.1a6.1,6.1,0,0,0,1.472,7.819,115.952,115.952,0,0,1,17.769,17.769,6.1,6.1,0,0,0,7.819,1.467l17.1-9.867a1.132,1.132,0,0,1,.932-.123,1.161,1.161,0,0,1,.738.574l11,19.047a1.359,1.359,0,0,1-.451,1.658l-17.077,9.859a6.133,6.133,0,0,0-2.644,7.515A113.941,113.941,0,0,1,48.6,391.025a6.1,6.1,0,0,0,6.036,5.192H74.343a1.228,1.228,0,0,1,1.226,1.224Z" transform="translate(315.42 -157.954)" fill="#1a171b"/>
      <path id="Path_10037" data-name="Path 10037" d="M-117.7,234.722a6.106,6.106,0,0,0,0,8.638,78.858,78.858,0,0,1,23.263,56.152,78.879,78.879,0,0,1-23.263,56.16,79.519,79.519,0,0,1-112.314,0,6.112,6.112,0,0,0-8.643,0,6.115,6.115,0,0,0,0,8.638,91.355,91.355,0,0,0,64.8,26.8,91.344,91.344,0,0,0,64.8-26.8,91.023,91.023,0,0,0,26.839-64.8,90.994,90.994,0,0,0-26.839-64.79A6.119,6.119,0,0,0-117.7,234.722Z" transform="translate(424.334 -49.033)" fill="#1a171b"/>
      <path id="Path_10038" data-name="Path 10038" d="M-107.239,274.5a91.737,91.737,0,0,0-91.639-91.632A91.733,91.733,0,0,0-290.512,274.5a91.733,91.733,0,0,0,91.634,91.632A91.737,91.737,0,0,0-107.239,274.5Zm-171.054,0a79.515,79.515,0,0,1,79.415-79.425,79.516,79.516,0,0,1,79.42,79.425,79.507,79.507,0,0,1-79.42,79.415A79.506,79.506,0,0,1-278.293,274.5Z" transform="translate(351.601 -121.768)" fill="#1a171b"/>
    </g>
  </g>
</svg>
