<svg xmlns="http://www.w3.org/2000/svg" width="680.648" height="846.525" viewBox="0 0 680.648 846.525">
  <g id="Icon_ionic-ios-notifications" data-name="Icon ionic-ios-notifications" transform="translate(2.746 5.571)">
    <path id="Path_10039" data-name="Path 10039" d="M114.3,137.955c64.323,0,99.484-45.5,99.484-109.619H14.6C14.6,92.453,49.765,137.955,114.3,137.955Z" transform="translate(222.867 693.499)" fill="none" stroke="#000" stroke-width="19"/>
    <path id="Path_10040" data-name="Path 10040" d="M660.02,616.767c-31.852-41.986-94.52-66.6-94.52-254.605,0-192.97-85.213-270.531-164.635-289.145-7.446-1.861-12.823-4.343-12.823-12.2v-6c0-27.715-22.751-51.086-50.466-50.88-27.715-.414-50.466,23.165-50.466,50.88v6c0,7.653-5.378,10.341-12.823,12.2-79.629,18.821-164.635,96.175-164.635,289.145,0,188.007-62.669,212.412-94.52,254.605-20.476,27.094-1.034,65.771,32.886,65.771H627.341C661.054,682.538,680.5,643.654,660.02,616.767Z" transform="translate(0 0)" fill="none" stroke="#000" stroke-width="19"/>
  </g>
</svg>
