<svg xmlns="http://www.w3.org/2000/svg" width="759.793" height="655.575" viewBox="0 0 759.793 655.575">
  <g id="Group_17296" data-name="Group 17296" transform="translate(-1127 1950)">
    <path id="Union_1" data-name="Union 1" d="M474.512,636.575H68.2A68.222,68.222,0,0,1,0,568.371V527.449A163.733,163.733,0,0,1,163.691,363.758h11.794c29.7,14.209,62.379,22.735,97.333,22.735s67.778-8.526,97.334-22.735h11.794A163.815,163.815,0,0,1,540.658,487.245a122.176,122.176,0,0,0,102.261-2.83H649.5a91.32,91.32,0,0,1,91.3,91.3v22.824a38.05,38.05,0,0,1-38.04,38.04Zm38.36-274.28a88.76,88.76,0,1,1,88.76,88.76A88.715,88.715,0,0,1,512.872,362.3Zm-399.2-203.151A159.144,159.144,0,1,1,272.818,318.288,159.063,159.063,0,0,1,113.674,159.144Z" transform="translate(1136.5 -1940.5)" fill="none" stroke="#000" stroke-width="19"/>
    <path id="refer" d="M421.38,343.5A31.444,31.444,0,0,1,412.03,366l-23.661,23.53a12.721,12.721,0,1,1-17.942-18.039l15.859-15.773H314.2a25.754,25.754,0,0,0-.311,51.507,12.721,12.721,0,0,1,0,25.443,50.39,50.39,0,0,1-36.1-15.045A51.308,51.308,0,0,1,314.2,330.271h70.924l-14.667-14.5a12.722,12.722,0,0,1,17.892-18.091l23.624,23.361A31.447,31.447,0,0,1,421.38,343.5Zm0,0" transform="translate(1103.811 -1798.844)" fill="#333"/>
  </g>
</svg>
